<svg width="400" height="403" viewBox="0 0 400 403" fill="none" xmlns="http://www.w3.org/2000/svg">
<path d="M216.858 1.04056C203.601 2.9227 196.236 4.6412 184.37 8.48737C141.244 22.5627 106.628 54.3957 88.3797 96.6215C84.1244 106.441 80.851 116.752 78.9689 126.081L77.9869 130.91L74.2226 130.173C72.0949 129.846 65.3846 129.518 59.3289 129.6C49.509 129.6 47.545 129.846 41.8167 131.892C24.9591 137.62 12.3568 149.077 4.99182 165.279C0.981996 174.036 0 178.946 0 190.484C0 198.913 0.327332 201.777 1.88216 206.851C6.30114 220.844 14.7299 232.383 26.1866 239.993C45.9083 253.168 70.0491 254.232 91.9803 243.103C100.409 238.847 101.8 238.602 101.882 241.711C101.882 242.202 99.6726 245.639 96.9721 249.404C83.4697 268.144 77.9869 284.51 77.9869 306.278C77.905 322.563 80.5237 333.528 87.6432 347.931C98.6088 369.944 118.167 387.538 141.98 396.458C150.655 399.731 160.556 401.613 171.849 402.104C199.427 403.332 224.304 393.839 245.172 373.954C261.457 358.487 271.686 337.129 274.713 312.415L275.777 303.823L284.37 300.877C320.376 288.602 349.018 266.998 368.985 237.129C377.987 223.708 385.679 206.196 389.934 189.502C395.581 167.653 395.335 139.748 389.525 116.671C376.432 65.3613 334.861 22.6445 282.651 6.93253C262.52 0.876862 235.188 -1.57812 216.858 1.04056ZM187.544 131.892C204.156 134.265 127.25 136.72 141.98 143.921C200.573 172.399 167.103 82.8736 153.846 143.921C143.126 193.266 210.792 152.041 160.71 168.653C154.982 170.535 196.52 248.585 195.211 249.404C191.692 251.941 194.194 220.026 193.294 228.455C191.739 243.185 177.414 228.946 171.849 239.993C159.984 263.888 189.947 245.476 163.106 249.404C152.795 250.877 159.649 249.377 150.648 246.758C118.569 237.347 189.182 280.746 184.19 249.404C182.799 240.975 224.066 245.558 226.357 237.129C228.566 228.7 213.932 232.151 219.169 225.195C227.353 214.23 202.877 218.068 202.877 212.258C202.877 202.601 142.224 167.162 133.877 165.279C129.049 164.216 94.1898 224.772 88.216 228.455C60.8838 245.312 119.902 238.609 109.918 208.904C107.79 202.602 117.783 201.881 119.502 195.008C122.529 182.323 112.848 190.136 123.814 183.507C133.225 177.861 235.106 205.05 245.172 206.851C248.363 207.423 179.748 149.895 181.794 149.977C188.995 149.977 214.648 135.82 216.858 126.081C222.831 99.813 177.126 148.504 195.211 129.6C217.142 106.605 163.705 145.164 195.211 138.944C208.713 136.244 173.96 130.009 187.544 131.892Z" fill="white"/>
<path d="M227.496 95.0666C210.393 100.549 199.918 115.689 201.146 133.528C201.882 144.166 208.347 155.296 217.103 160.942C238.707 174.772 267.185 164.052 273.404 139.747C278.069 121.417 267.921 102.186 250.327 95.9668C243.862 93.6755 233.142 93.2663 227.496 95.0666ZM241.211 133.528C252.995 139.256 242.533 122.644 234.922 133.528C229.685 141.139 250.049 136.065 241.211 133.528C235.156 145.476 228.118 129.682 241.211 133.528C243.093 129.764 237.365 135.247 241.211 133.528C257.205 133.528 237.12 131.564 241.211 133.528Z" fill="black"/>
<path d="M312.848 95.4759C291.653 102.268 281.424 125.918 290.916 146.131C297.054 159.224 309.247 166.916 324.059 166.916C335.433 166.998 343.453 163.397 351.718 154.559C366.612 138.684 362.848 111.679 344.026 99.5675C335.352 94.0029 322.667 92.3662 312.848 95.4759ZM324.059 140.861C332.897 144.953 326.023 120.68 324.059 130.337C321.767 141.384 334.942 119.006 324.059 117.861C312.684 116.715 312.848 144.639 312.848 133.674C312.848 123.363 302.618 147.767 312.848 146.131C318.167 145.312 318.985 138.406 324.059 140.861Z" fill="black"/>
<path d="M338.952 294.412C321.031 296.622 305.155 307.587 296.808 323.626C282.978 350.222 293.535 383.201 320.294 396.622C331.833 402.513 347.463 404.15 359.492 400.795C384.206 393.921 399.918 373.626 400 348.422C400.082 315.689 371.604 290.484 338.952 294.412ZM393.109 345.947C406.202 351.43 383.306 329.191 385.27 343.021C388.952 368.635 391.573 358.967 365.796 355.53C332.735 351.029 365.334 387.735 387.838 363.676C399.458 351.238 377.642 339.564 393.109 345.947Z" fill="white"/>
<rect x="223" y="117.504" width="34" height="27" fill="black"/>
<rect x="189" y="238.504" width="24" height="35" fill="white"/>
<rect x="179" y="120.504" width="18" height="21" fill="white"/>
</svg>
